<?xml version="1.0" encoding="UTF-8"?>
<!DOCTYPE svg PUBLIC "-//W3C//DTD SVG 1.1//EN" "http://www.w3.org/Graphics/SVG/1.1/DTD/svg11.dtd">
<!-- Creator: CorelDRAW -->
<svg xmlns="http://www.w3.org/2000/svg" xml:space="preserve" width="2172px" height="553px" version="1.1" style="shape-rendering:geometricPrecision; text-rendering:geometricPrecision; image-rendering:optimizeQuality; fill-rule:evenodd; clip-rule:evenodd"
viewBox="0 0 2170.21 552.48"
 xmlns:xlink="http://www.w3.org/1999/xlink"
 xmlns:xodm="http://www.corel.com/coreldraw/odm/2003">
 <defs>
  <style type="text/css">
   <![CDATA[
    .fil1 {fill:#FEFEFE}
    .fil2 {fill:#FEFEFE;fill-rule:nonzero}
    .fil0 {fill:url(#id0)}
   ]]>
  </style>
  <radialGradient id="id0" gradientUnits="userSpaceOnUse" gradientTransform="matrix(0.896443 -0 -0 0.999999 26 0)" cx="247.63" cy="276.24" r="321.03" fx="247.63" fy="276.24">
   <stop offset="0" style="stop-opacity:1; stop-color:#1F1B20"/>
   <stop offset="1" style="stop-opacity:1; stop-color:#E01C42"/>
  </radialGradient>
 </defs>
 <g id="Слой_x0020_1">
  <metadata id="CorelCorpID_0Corel-Layer"/>
  <g id="_2412079741104">
   <path class="fil0" d="M276.24 0c89.21,0 168.52,42.3 219.03,107.92l-120.66 93c-22.64,-29.53 -58.28,-48.58 -98.37,-48.58 -68.43,0 -123.9,55.47 -123.9,123.9 0,68.43 55.47,123.9 123.9,123.9 40.11,0 75.76,-19.06 98.4,-48.61l119.46 94.56c-50.56,64.75 -129.34,106.39 -217.86,106.39 -152.56,0 -276.24,-123.68 -276.24,-276.24 0,-152.56 123.68,-276.24 276.24,-276.24z"/>
   <path class="fil1" d="M279.55 30.03c-124.85,0 -228.22,92 -246.02,211.9l53.72 0c13.25,-69.55 63.29,-126.06 129.1,-148.49 0.4,-0.14 0.8,-0.28 1.21,-0.41 8.45,-2.61 14.38,-4.32 16.75,-4.77l20.44 43.34c-72.37,9.72 -128.17,71.7 -128.17,146.73 0,81.77 66.29,148.06 148.06,148.06 75.13,0 137.19,-55.96 146.78,-128.47 0.1,-0.79 -0.08,-1.67 0.29,-2.38 6.84,-13.13 11.86,-23.39 21.09,-36.79 3.06,-4.43 8.25,-9 7.34,-14.81 -2.01,-12.75 -22.13,-11.79 -51.38,-4.03 -25.87,8.11 -39.04,20.78 -44.22,36.33 -0.21,0.65 -0.15,1.4 -0.15,2.09 0,44.04 -35.7,79.75 -79.75,79.75 -44.04,0 -79.75,-35.71 -79.75,-79.75 0,-37.25 25.53,-68.52 60.04,-77.3 1.58,13.37 13.02,23.83 26.79,23.83l14.69 0c9.58,0 17.99,-5.03 22.78,-12.61 2.11,-3.06 3.81,-7.34 4.15,-14.33l0.05 -59.43 0 -50.56 0 -32.43 0 -21.61c-14.23,-2.53 -28.88,-3.86 -43.84,-3.86zm107.28 406.49l42.07 35.01c-50.33,38.42 -112.85,55.92 -175.72,49.67l0 -53.3c46.86,5.96 94.31,-5.05 133.65,-31.38zm-353.8 -124.33c11.96,89.06 71.05,163.18 151.34,196.46l0 -58.76c-50.72,-28.27 -87.56,-78.42 -97.76,-137.7l-53.58 0z"/>
   <path class="fil2" d="M552.78 343.35l-16.34 0 0.04 27.78 -6.02 0 0 -32.96 22.37 0 -0.05 5.18zm18.74 -5.18c2.86,0 5.35,0.47 7.47,1.41 2.12,0.94 3.74,2.29 4.87,4.05 1.13,1.76 1.7,3.85 1.7,6.26 0,2.39 -0.57,4.47 -1.7,6.24 -1.13,1.78 -2.75,3.14 -4.87,4.08 -2.12,0.94 -4.61,1.41 -7.47,1.41l-7.44 0 0 9.51 -6.12 0 0 -32.96 13.56 0zm-0.28 18.27c2.67,0 4.7,-0.57 6.08,-1.7 1.38,-1.13 2.07,-2.74 2.07,-4.85 0,-2.1 -0.69,-3.72 -2.07,-4.85 -1.38,-1.13 -3.41,-1.69 -6.08,-1.69l-7.16 0 0 13.09 7.16 0zm47.71 -18.27l-14.32 26.61c-1.25,2.35 -2.75,4.12 -4.49,5.29 -1.75,1.18 -3.64,1.77 -5.68,1.77 -1.63,0 -3.25,-0.35 -4.85,-1.04l1.51 -4.8c1.28,0.41 2.35,0.61 3.2,0.61 1.98,0 3.61,-1.02 4.9,-3.06l0.52 -0.8 -13.14 -24.58 6.54 0 9.75 19.35 10.03 -19.35 6.03 0zm21.9 15.77c1.98,0.63 3.52,1.64 4.64,3.04 1.11,1.4 1.67,3.04 1.67,4.92 0,1.98 -0.64,3.7 -1.93,5.16 -1.29,1.46 -3.01,2.58 -5.16,3.37 -2.15,0.78 -4.5,1.17 -7.04,1.17 -2.2,0 -4.4,-0.3 -6.62,-0.91 -2.21,-0.62 -4.26,-1.53 -6.14,-2.76l1.98 -4.47c1.44,0.97 3.04,1.72 4.8,2.23 1.76,0.52 3.5,0.78 5.23,0.78 2.48,0 4.54,-0.49 6.19,-1.46 1.65,-0.97 2.47,-2.31 2.47,-4 0,-1.45 -0.59,-2.54 -1.79,-3.3 -1.19,-0.75 -2.84,-1.13 -4.94,-1.13l-7.68 0 0 -4.8 7.21 0c1.82,0 3.25,-0.38 4.28,-1.13 1.04,-0.76 1.56,-1.78 1.56,-3.06 0,-1.54 -0.7,-2.74 -2.1,-3.58 -1.4,-0.85 -3.18,-1.27 -5.34,-1.27 -1.48,0 -3,0.21 -4.57,0.63 -1.57,0.43 -3.05,1.04 -4.43,1.86l-1.93 -4.94c1.7,-0.91 3.49,-1.6 5.39,-2.05 1.9,-0.46 3.79,-0.69 5.68,-0.69 2.45,0 4.7,0.38 6.76,1.14 2.05,0.75 3.69,1.82 4.92,3.22 1.22,1.4 1.83,3.04 1.83,4.92 0,1.64 -0.44,3.06 -1.31,4.29 -0.88,1.22 -2.09,2.16 -3.63,2.82zm28.49 17.66c-3.36,0 -6.39,-0.73 -9.09,-2.19 -2.7,-1.45 -4.82,-3.48 -6.36,-6.07 -1.53,-2.59 -2.3,-5.49 -2.3,-8.69 0,-3.2 0.77,-6.1 2.3,-8.69 1.54,-2.59 3.66,-4.61 6.36,-6.07 2.7,-1.46 5.73,-2.19 9.09,-2.19 3.36,0 6.39,0.73 9.09,2.19 2.7,1.46 4.82,3.47 6.36,6.05 1.54,2.57 2.31,5.48 2.31,8.71 0,3.23 -0.77,6.14 -2.31,8.71 -1.54,2.58 -3.66,4.6 -6.36,6.05 -2.7,1.46 -5.73,2.19 -9.09,2.19zm0 -5.36c2.2,0 4.18,-0.5 5.94,-1.49 1.75,-0.99 3.14,-2.37 4.14,-4.14 1,-1.78 1.51,-3.76 1.51,-5.96 0,-2.2 -0.51,-4.18 -1.51,-5.96 -1,-1.77 -2.39,-3.15 -4.14,-4.14 -1.76,-0.99 -3.74,-1.49 -5.94,-1.49 -2.2,0 -4.17,0.5 -5.93,1.49 -1.76,0.99 -3.14,2.37 -4.15,4.14 -1,1.78 -1.5,3.76 -1.5,5.96 0,2.2 0.5,4.18 1.5,5.96 1.01,1.77 2.39,3.15 4.15,4.14 1.76,0.99 3.73,1.49 5.93,1.49zm53.74 -28.07l0 32.96 -6.03 0 0 -27.78 -17.1 0 0 27.78 -6.02 0 0 -32.96 29.15 0zm24.54 33.43c-3.36,0 -6.39,-0.73 -9.1,-2.19 -2.7,-1.45 -4.81,-3.48 -6.35,-6.07 -1.54,-2.59 -2.31,-5.49 -2.31,-8.69 0,-3.2 0.77,-6.1 2.31,-8.69 1.54,-2.59 3.65,-4.61 6.35,-6.07 2.71,-1.46 5.74,-2.19 9.1,-2.19 3.35,0 6.38,0.73 9.08,2.19 2.7,1.46 4.82,3.47 6.36,6.05 1.54,2.57 2.31,5.48 2.31,8.71 0,3.23 -0.77,6.14 -2.31,8.71 -1.54,2.58 -3.66,4.6 -6.36,6.05 -2.7,1.46 -5.73,2.19 -9.08,2.19zm0 -5.36c2.19,0 4.17,-0.5 5.93,-1.49 1.76,-0.99 3.14,-2.37 4.14,-4.14 1.01,-1.78 1.51,-3.76 1.51,-5.96 0,-2.2 -0.5,-4.18 -1.51,-5.96 -1,-1.77 -2.38,-3.15 -4.14,-4.14 -1.76,-0.99 -3.74,-1.49 -5.93,-1.49 -2.2,0 -4.18,0.5 -5.94,1.49 -1.76,0.99 -3.14,2.37 -4.14,4.14 -1.01,1.78 -1.51,3.76 -1.51,5.96 0,2.2 0.5,4.18 1.51,5.96 1,1.77 2.38,3.15 4.14,4.14 1.76,0.99 3.74,1.49 5.94,1.49zm56.27 -0.29l0 12.2 -5.65 0 0 -7.02 -25.29 0 0 7.02 -5.7 0 0.05 -12.2 1.41 0c2.08,-0.09 3.53,-1.62 4.36,-4.59 0.83,-2.97 1.34,-7.21 1.53,-12.74l0.38 -10.45 24.16 0 0 27.78 4.75 0zm-23.92 -16.76c-0.16,4.27 -0.5,7.82 -1.04,10.66 -0.53,2.85 -1.38,4.88 -2.54,6.1l16.72 0 0 -22.6 -12.9 0 -0.24 5.84zm49.22 0.14c3.95,0 6.99,0.89 9.11,2.66 2.12,1.77 3.18,4.4 3.18,7.89 0,3.67 -1.16,6.47 -3.46,8.38 -2.31,1.92 -5.6,2.87 -9.87,2.87l-14.13 0 0 -27.78 -9.65 0 0 -5.18 15.68 0 0 11.16 9.14 0zm-1.28 17.09c2.39,0 4.22,-0.54 5.49,-1.64 1.27,-1.1 1.91,-2.7 1.91,-4.81 0,-3.99 -2.47,-5.98 -7.4,-5.98l-7.86 0 0 12.43 7.86 0zm44.51 -0.42l0 5.13 -24.72 0 0 -32.96 24.06 0 0 5.13 -17.94 0 0 8.57 15.91 0 0 5.04 -15.91 0 0 9.09 18.6 0zm-17.19 -31.03c-0.82,0 -1.49,-0.27 -2.02,-0.81 -0.54,-0.53 -0.81,-1.21 -0.81,-2.02 0,-0.85 0.27,-1.54 0.81,-2.07 0.53,-0.54 1.2,-0.8 2.02,-0.8 0.82,0 1.49,0.26 2.03,0.8 0.53,0.53 0.8,1.22 0.8,2.07 0,0.81 -0.27,1.49 -0.8,2.02 -0.54,0.54 -1.21,0.81 -2.03,0.81zm9.14 0c-0.82,0 -1.49,-0.27 -2.03,-0.81 -0.53,-0.53 -0.8,-1.21 -0.8,-2.02 0,-0.85 0.27,-1.54 0.8,-2.07 0.54,-0.54 1.21,-0.8 2.03,-0.8 0.81,0 1.49,0.26 2.02,0.8 0.54,0.53 0.8,1.22 0.8,2.07 0,0.81 -0.26,1.49 -0.8,2.02 -0.53,0.54 -1.21,0.81 -2.02,0.81zm45.16 36.16l-0.05 -21.85 -10.83 18.09 -2.73 0 -10.83 -17.81 0 21.57 -5.79 0 0 -32.96 5.04 0 13.04 21.8 12.9 -21.8 5 0 0.09 32.96 -5.84 0zm44.37 -32.96l0 32.96 -6.13 0 0 -14.13 -17.05 0 0 14.13 -6.12 0 0 -32.96 6.12 0 0 13.61 17.05 0 0 -13.61 6.13 0zm24.49 33.43c-3.36,0 -6.39,-0.73 -9.09,-2.19 -2.7,-1.45 -4.82,-3.48 -6.36,-6.07 -1.54,-2.59 -2.31,-5.49 -2.31,-8.69 0,-3.2 0.77,-6.1 2.31,-8.69 1.54,-2.59 3.66,-4.61 6.36,-6.07 2.7,-1.46 5.73,-2.19 9.09,-2.19 3.36,0 6.38,0.73 9.08,2.19 2.71,1.46 4.82,3.47 6.36,6.05 1.54,2.57 2.31,5.48 2.31,8.71 0,3.23 -0.77,6.14 -2.31,8.71 -1.54,2.58 -3.65,4.6 -6.36,6.05 -2.7,1.46 -5.72,2.19 -9.08,2.19zm0 -5.36c2.19,0 4.17,-0.5 5.93,-1.49 1.76,-0.99 3.14,-2.37 4.14,-4.14 1.01,-1.78 1.51,-3.76 1.51,-5.96 0,-2.2 -0.5,-4.18 -1.51,-5.96 -1,-1.77 -2.38,-3.15 -4.14,-4.14 -1.76,-0.99 -3.74,-1.49 -5.93,-1.49 -2.2,0 -4.18,0.5 -5.94,1.49 -1.76,0.99 -3.14,2.37 -4.14,4.14 -1.01,1.78 -1.51,3.76 -1.51,5.96 0,2.2 0.5,4.18 1.51,5.96 1,1.77 2.38,3.15 4.14,4.14 1.76,0.99 3.74,1.49 5.94,1.49zm49.26 -0.24l0 5.13 -24.73 0 0 -32.96 24.07 0 0 5.13 -17.95 0 0 8.57 15.92 0 0 5.04 -15.92 0 0 9.09 18.61 0zm8.47 -2.35c1.1,0 2.01,0.36 2.74,1.08 0.72,0.72 1.08,1.66 1.08,2.82 0,0.51 -0.07,1.03 -0.21,1.58 -0.14,0.55 -0.43,1.38 -0.87,2.47l-2.41 6.64 -3.81 0 1.88 -7.2c-0.69,-0.28 -1.23,-0.73 -1.62,-1.34 -0.39,-0.61 -0.59,-1.33 -0.59,-2.15 0,-1.16 0.36,-2.1 1.08,-2.82 0.73,-0.72 1.64,-1.08 2.73,-1.08zm38.48 7.95c-3.32,0 -6.33,-0.73 -9.02,-2.19 -2.68,-1.45 -4.78,-3.47 -6.31,-6.05 -1.52,-2.57 -2.28,-5.48 -2.28,-8.71 0,-3.23 0.77,-6.14 2.31,-8.71 1.54,-2.58 3.65,-4.59 6.33,-6.05 2.69,-1.46 5.69,-2.19 9.02,-2.19 2.7,0 5.17,0.47 7.39,1.41 2.23,0.94 4.12,2.31 5.66,4.1l-3.96 3.72c-2.39,-2.58 -5.32,-3.87 -8.81,-3.87 -2.26,0 -4.28,0.5 -6.07,1.49 -1.79,0.99 -3.19,2.36 -4.19,4.12 -1.01,1.76 -1.51,3.75 -1.51,5.98 0,2.23 0.5,4.22 1.51,5.98 1,1.76 2.4,3.13 4.19,4.12 1.79,0.99 3.81,1.49 6.07,1.49 3.49,0 6.42,-1.31 8.81,-3.91l3.96 3.76c-1.54,1.79 -3.43,3.16 -5.68,4.1 -2.24,0.94 -4.72,1.41 -7.42,1.41zm40.5 -17.61c2.11,0.57 3.71,1.53 4.81,2.9 1.1,1.36 1.65,3.07 1.65,5.11 0,2.89 -1.07,5.13 -3.21,6.73 -2.13,1.6 -5.22,2.4 -9.27,2.4l-15.64 0 0 -32.96 14.74 0c3.71,0 6.6,0.73 8.67,2.21 2.07,1.48 3.11,3.56 3.11,6.26 0,1.73 -0.42,3.22 -1.25,4.48 -0.83,1.25 -2.03,2.21 -3.61,2.87zm-15.63 -1.74l8.19 0c1.98,0 3.49,-0.39 4.52,-1.18 1.04,-0.78 1.56,-1.95 1.56,-3.48 0,-1.54 -0.52,-2.71 -1.56,-3.51 -1.03,-0.8 -2.54,-1.2 -4.52,-1.2l-8.19 0 0 9.37zm9.42 14.17c4.33,0 6.5,-1.63 6.5,-4.89 0,-3.21 -2.17,-4.81 -6.5,-4.81l-9.42 0 0 9.7 9.42 0zm41.49 -2.92l-16.48 0 -3.25 7.63 -6.32 0 14.84 -32.96 6.03 0 14.88 32.96 -6.4 0 -3.3 -7.63zm-2.03 -4.8l-6.21 -14.41 -6.17 14.41 12.38 0zm30.34 -20.53c2.85,0 5.34,0.47 7.46,1.41 2.12,0.94 3.74,2.29 4.87,4.05 1.13,1.76 1.7,3.85 1.7,6.26 0,2.39 -0.57,4.47 -1.7,6.24 -1.13,1.78 -2.75,3.14 -4.87,4.08 -2.12,0.94 -4.61,1.41 -7.46,1.41l-7.45 0 0 9.51 -6.12 0 0 -32.96 13.57 0zm-0.29 18.27c2.67,0 4.7,-0.57 6.08,-1.7 1.38,-1.13 2.07,-2.74 2.07,-4.85 0,-2.1 -0.69,-3.72 -2.07,-4.85 -1.38,-1.13 -3.41,-1.69 -6.08,-1.69l-7.16 0 0 13.09 7.16 0zm35.84 15.16c-3.36,0 -6.39,-0.73 -9.09,-2.19 -2.7,-1.45 -4.82,-3.48 -6.36,-6.07 -1.53,-2.59 -2.3,-5.49 -2.3,-8.69 0,-3.2 0.77,-6.1 2.3,-8.69 1.54,-2.59 3.66,-4.61 6.36,-6.07 2.7,-1.46 5.73,-2.19 9.09,-2.19 3.36,0 6.39,0.73 9.09,2.19 2.7,1.46 4.82,3.47 6.36,6.05 1.54,2.57 2.31,5.48 2.31,8.71 0,3.23 -0.77,6.14 -2.31,8.71 -1.54,2.58 -3.66,4.6 -6.36,6.05 -2.7,1.46 -5.73,2.19 -9.09,2.19zm0 -5.36c2.2,0 4.18,-0.5 5.94,-1.49 1.75,-0.99 3.14,-2.37 4.14,-4.14 1.01,-1.78 1.51,-3.76 1.51,-5.96 0,-2.2 -0.5,-4.18 -1.51,-5.96 -1,-1.77 -2.39,-3.15 -4.14,-4.14 -1.76,-0.99 -3.74,-1.49 -5.94,-1.49 -2.2,0 -4.17,0.5 -5.93,1.49 -1.76,0.99 -3.14,2.37 -4.15,4.14 -1,1.78 -1.5,3.76 -1.5,5.96 0,2.2 0.5,4.18 1.5,5.96 1.01,1.77 2.39,3.15 4.15,4.14 1.76,0.99 3.73,1.49 5.93,1.49zm49.55 -28.07l0 32.96 -6.08 0 0 -12.43c-3.11,1.16 -6.06,1.74 -8.85,1.74 -4.21,0 -7.45,-1.01 -9.73,-3.04 -2.27,-2.02 -3.41,-4.93 -3.41,-8.73l0 -10.5 6.07 0 0 9.84c0,2.32 0.68,4.1 2.03,5.32 1.35,1.23 3.28,1.84 5.79,1.84 2.86,0 5.56,-0.58 8.1,-1.74l0 -15.26 6.08 0zm38.52 0l0 32.96 -6.12 0 0 -14.13 -17.05 0 0 14.13 -6.12 0 0 -32.96 6.12 0 0 13.61 17.05 0 0 -13.61 6.12 0zm24.49 33.43c-3.36,0 -6.39,-0.73 -9.09,-2.19 -2.7,-1.45 -4.82,-3.48 -6.36,-6.07 -1.53,-2.59 -2.3,-5.49 -2.3,-8.69 0,-3.2 0.77,-6.1 2.3,-8.69 1.54,-2.59 3.66,-4.61 6.36,-6.07 2.7,-1.46 5.73,-2.19 9.09,-2.19 3.36,0 6.39,0.73 9.09,2.19 2.7,1.46 4.82,3.47 6.36,6.05 1.54,2.57 2.31,5.48 2.31,8.71 0,3.23 -0.77,6.14 -2.31,8.71 -1.54,2.58 -3.66,4.6 -6.36,6.05 -2.7,1.46 -5.73,2.19 -9.09,2.19zm0 -5.36c2.2,0 4.18,-0.5 5.94,-1.49 1.75,-0.99 3.13,-2.37 4.14,-4.14 1,-1.78 1.51,-3.76 1.51,-5.96 0,-2.2 -0.51,-4.18 -1.51,-5.96 -1.01,-1.77 -2.39,-3.15 -4.14,-4.14 -1.76,-0.99 -3.74,-1.49 -5.94,-1.49 -2.2,0 -4.18,0.5 -5.93,1.49 -1.76,0.99 -3.14,2.37 -4.15,4.14 -1,1.78 -1.5,3.76 -1.5,5.96 0,2.2 0.5,4.18 1.5,5.96 1.01,1.77 2.39,3.15 4.15,4.14 1.75,0.99 3.73,1.49 5.93,1.49zm49.26 -0.24l0 5.13 -24.72 0 0 -32.96 24.06 0 0 5.13 -17.94 0 0 8.57 15.92 0 0 5.04 -15.92 0 0 9.09 18.6 0zm8.48 -2.35c1.1,0 2.01,0.36 2.73,1.08 0.72,0.72 1.09,1.66 1.09,2.82 0,0.51 -0.07,1.03 -0.22,1.58 -0.14,0.55 -0.43,1.38 -0.87,2.47l-2.4 6.64 -3.81 0 1.88 -7.2c-0.69,-0.28 -1.23,-0.73 -1.63,-1.34 -0.39,-0.61 -0.58,-1.33 -0.58,-2.15 0,-1.16 0.36,-2.1 1.08,-2.82 0.72,-0.72 1.63,-1.08 2.73,-1.08zm38.48 7.95c-3.33,0 -6.34,-0.73 -9.02,-2.19 -2.68,-1.45 -4.79,-3.47 -6.31,-6.05 -1.52,-2.57 -2.28,-5.48 -2.28,-8.71 0,-3.23 0.76,-6.14 2.3,-8.71 1.54,-2.58 3.65,-4.59 6.34,-6.05 2.68,-1.46 5.69,-2.19 9.02,-2.19 2.7,0 5.16,0.47 7.39,1.41 2.23,0.94 4.11,2.31 5.65,4.1l-3.96 3.72c-2.38,-2.58 -5.32,-3.87 -8.8,-3.87 -2.26,0 -4.29,0.5 -6.08,1.49 -1.79,0.99 -3.18,2.36 -4.19,4.12 -1,1.76 -1.51,3.75 -1.51,5.98 0,2.23 0.51,4.22 1.51,5.98 1.01,1.76 2.4,3.13 4.19,4.12 1.79,0.99 3.82,1.49 6.08,1.49 3.48,0 6.42,-1.31 8.8,-3.91l3.96 3.76c-1.54,1.79 -3.43,3.16 -5.67,4.1 -2.25,0.94 -4.72,1.41 -7.42,1.41zm30.94 -14.36l-6.12 0 0 13.89 -6.03 0 0 -32.96 6.03 0 0 13.8 6.31 0 9.47 -13.8 6.49 0 -11.25 15.96 11.68 17 -6.92 0 -9.66 -13.89zm49.69 -19.07l0 32.96 -6.03 0 0 -27.78 -13 0 -0.28 8.24c-0.16,4.61 -0.54,8.36 -1.13,11.23 -0.6,2.87 -1.56,5.06 -2.88,6.55 -1.31,1.49 -3.14,2.23 -5.46,2.23 -0.81,0 -1.93,-0.15 -3.34,-0.47l0.42 -5.32c0.41,0.13 0.88,0.19 1.42,0.19 1.91,0 3.27,-1.14 4.07,-3.41 0.8,-2.28 1.29,-5.87 1.48,-10.77l0.47 -13.65 24.26 0zm31.13 25.33l-16.49 0 -3.25 7.63 -6.31 0 14.84 -32.96 6.03 0 14.88 32.96 -6.41 0 -3.29 -7.63zm-2.03 -4.8l-6.22 -14.41 -6.17 14.41 12.39 0zm49.69 7.25l0 12.2 -5.65 0 0 -7.02 -25.29 0 0 7.02 -5.7 0 0.04 -12.2 1.42 0c2.07,-0.09 3.52,-1.62 4.35,-4.59 0.84,-2.97 1.35,-7.21 1.53,-12.74l0.38 -10.45 24.16 0 0 27.78 4.76 0zm-23.93 -16.76c-0.15,4.27 -0.5,7.82 -1.03,10.66 -0.54,2.85 -1.38,4.88 -2.55,6.1l16.72 0 0 -22.6 -12.9 0 -0.24 5.84zm44.84 22.41c-3.33,0 -6.34,-0.73 -9.02,-2.19 -2.69,-1.45 -4.79,-3.47 -6.31,-6.05 -1.53,-2.57 -2.29,-5.48 -2.29,-8.71 0,-3.23 0.77,-6.14 2.31,-8.71 1.54,-2.58 3.65,-4.59 6.34,-6.05 2.68,-1.46 5.69,-2.19 9.02,-2.19 2.69,0 5.16,0.47 7.39,1.41 2.23,0.94 4.11,2.31 5.65,4.1l-3.96 3.72c-2.38,-2.58 -5.32,-3.87 -8.8,-3.87 -2.26,0 -4.29,0.5 -6.08,1.49 -1.79,0.99 -3.18,2.36 -4.19,4.12 -1,1.76 -1.51,3.75 -1.51,5.98 0,2.23 0.51,4.22 1.51,5.98 1.01,1.76 2.4,3.13 4.19,4.12 1.79,0.99 3.82,1.49 6.08,1.49 3.48,0 6.42,-1.31 8.8,-3.91l3.96 3.76c-1.54,1.79 -3.43,3.16 -5.68,4.1 -2.24,0.94 -4.71,1.41 -7.41,1.41zm30.94 -14.36l-6.12 0 0 13.89 -6.03 0 0 -32.96 6.03 0 0 13.8 6.31 0 9.46 -13.8 6.5 0 -11.25 15.96 11.68 17 -6.93 0 -9.65 -13.89zm35.93 14.36c-3.36,0 -6.39,-0.73 -9.09,-2.19 -2.7,-1.45 -4.82,-3.48 -6.35,-6.07 -1.54,-2.59 -2.31,-5.49 -2.31,-8.69 0,-3.2 0.77,-6.1 2.31,-8.69 1.53,-2.59 3.65,-4.61 6.35,-6.07 2.7,-1.46 5.73,-2.19 9.09,-2.19 3.36,0 6.39,0.73 9.09,2.19 2.7,1.46 4.82,3.47 6.36,6.05 1.54,2.57 2.31,5.48 2.31,8.71 0,3.23 -0.77,6.14 -2.31,8.71 -1.54,2.58 -3.66,4.6 -6.36,6.05 -2.7,1.46 -5.73,2.19 -9.09,2.19zm0 -5.36c2.2,0 4.18,-0.5 5.94,-1.49 1.76,-0.99 3.14,-2.37 4.14,-4.14 1.01,-1.78 1.51,-3.76 1.51,-5.96 0,-2.2 -0.5,-4.18 -1.51,-5.96 -1,-1.77 -2.38,-3.15 -4.14,-4.14 -1.76,-0.99 -3.74,-1.49 -5.94,-1.49 -2.19,0 -4.17,0.5 -5.93,1.49 -1.76,0.99 -3.14,2.37 -4.14,4.14 -1.01,1.78 -1.51,3.76 -1.51,5.96 0,2.2 0.5,4.18 1.51,5.96 1,1.77 2.38,3.15 4.14,4.14 1.76,0.99 3.74,1.49 5.93,1.49zm49.27 -0.24l0 5.13 -24.73 0 0 -32.96 24.07 0 0 5.13 -17.95 0 0 8.57 15.92 0 0 5.04 -15.92 0 0 9.09 18.61 0zm35.08 5.6c-3.36,0 -6.39,-0.73 -9.09,-2.19 -2.7,-1.45 -4.82,-3.48 -6.36,-6.07 -1.53,-2.59 -2.3,-5.49 -2.3,-8.69 0,-3.2 0.77,-6.1 2.3,-8.69 1.54,-2.59 3.66,-4.61 6.36,-6.07 2.7,-1.46 5.73,-2.19 9.09,-2.19 3.36,0 6.39,0.73 9.09,2.19 2.7,1.46 4.82,3.47 6.36,6.05 1.54,2.57 2.31,5.48 2.31,8.71 0,3.23 -0.77,6.14 -2.31,8.71 -1.54,2.58 -3.66,4.6 -6.36,6.05 -2.7,1.46 -5.73,2.19 -9.09,2.19zm0 -5.36c2.2,0 4.18,-0.5 5.94,-1.49 1.75,-0.99 3.14,-2.37 4.14,-4.14 1.01,-1.78 1.51,-3.76 1.51,-5.96 0,-2.2 -0.5,-4.18 -1.51,-5.96 -1,-1.77 -2.39,-3.15 -4.14,-4.14 -1.76,-0.99 -3.74,-1.49 -5.94,-1.49 -2.2,0 -4.17,0.5 -5.93,1.49 -1.76,0.99 -3.14,2.37 -4.15,4.14 -1,1.78 -1.5,3.76 -1.5,5.96 0,2.2 0.5,4.18 1.5,5.96 1.01,1.77 2.39,3.15 4.15,4.14 1.76,0.99 3.73,1.49 5.93,1.49zm24.59 -28.07l25.66 0 0 5.04 -19.64 0 0 8.1 9.75 0c3.96,0 6.97,0.82 9.02,2.47 2.06,1.65 3.09,4.03 3.09,7.13 0,3.27 -1.13,5.79 -3.39,7.56 -2.26,1.78 -5.48,2.66 -9.66,2.66l-14.83 0 0 -32.96zm14.5 28.25c2.36,0 4.15,-0.45 5.37,-1.36 1.23,-0.91 1.84,-2.23 1.84,-3.96 0,-3.39 -2.4,-5.08 -7.21,-5.08l-8.48 0 0 10.4 8.48 0zm35.32 5.18c-3.36,0 -6.39,-0.73 -9.09,-2.19 -2.7,-1.45 -4.82,-3.48 -6.35,-6.07 -1.54,-2.59 -2.31,-5.49 -2.31,-8.69 0,-3.2 0.77,-6.1 2.31,-8.69 1.53,-2.59 3.65,-4.61 6.35,-6.07 2.7,-1.46 5.73,-2.19 9.09,-2.19 3.36,0 6.39,0.73 9.09,2.19 2.7,1.46 4.82,3.47 6.36,6.05 1.54,2.57 2.31,5.48 2.31,8.71 0,3.23 -0.77,6.14 -2.31,8.71 -1.54,2.58 -3.66,4.6 -6.36,6.05 -2.7,1.46 -5.73,2.19 -9.09,2.19zm0 -5.36c2.2,0 4.18,-0.5 5.94,-1.49 1.76,-0.99 3.14,-2.37 4.14,-4.14 1.01,-1.78 1.51,-3.76 1.51,-5.96 0,-2.2 -0.5,-4.18 -1.51,-5.96 -1,-1.77 -2.38,-3.15 -4.14,-4.14 -1.76,-0.99 -3.74,-1.49 -5.94,-1.49 -2.19,0 -4.17,0.5 -5.93,1.49 -1.76,0.99 -3.14,2.37 -4.14,4.14 -1.01,1.78 -1.51,3.76 -1.51,5.96 0,2.2 0.5,4.18 1.51,5.96 1,1.77 2.38,3.15 4.14,4.14 1.76,0.99 3.74,1.49 5.93,1.49zm38.1 -28.07c2.86,0 5.35,0.47 7.47,1.41 2.12,0.94 3.74,2.29 4.87,4.05 1.13,1.76 1.7,3.85 1.7,6.26 0,2.39 -0.57,4.47 -1.7,6.24 -1.13,1.78 -2.75,3.14 -4.87,4.08 -2.12,0.94 -4.61,1.41 -7.47,1.41l-7.44 0 0 9.51 -6.12 0 0 -32.96 13.56 0zm-0.28 18.27c2.67,0 4.7,-0.57 6.08,-1.7 1.38,-1.13 2.07,-2.74 2.07,-4.85 0,-2.1 -0.69,-3.72 -2.07,-4.85 -1.38,-1.13 -3.41,-1.69 -6.08,-1.69l-7.16 0 0 13.09 7.16 0zm47.71 -18.27l-14.32 26.61c-1.25,2.35 -2.75,4.12 -4.49,5.29 -1.75,1.18 -3.64,1.77 -5.68,1.77 -1.63,0 -3.25,-0.35 -4.85,-1.04l1.51 -4.8c1.28,0.41 2.35,0.61 3.2,0.61 1.98,0 3.61,-1.02 4.9,-3.06l0.52 -0.8 -13.14 -24.58 6.54 0 9.75 19.35 10.03 -19.35 6.03 0zm36.45 27.78l0 12.2 -5.65 0 0 -7.02 -25.29 0 0 7.02 -5.7 0 0.05 -12.2 1.41 0c2.07,-0.09 3.53,-1.62 4.36,-4.59 0.83,-2.97 1.34,-7.21 1.53,-12.74l0.38 -10.45 24.16 0 0 27.78 4.75 0zm-23.92 -16.76c-0.16,4.27 -0.51,7.82 -1.04,10.66 -0.53,2.85 -1.38,4.88 -2.54,6.1l16.72 0 0 -22.6 -12.91 0 -0.23 5.84zm44.93 22.41c-3.36,0 -6.39,-0.73 -9.09,-2.19 -2.7,-1.45 -4.82,-3.48 -6.36,-6.07 -1.54,-2.59 -2.31,-5.49 -2.31,-8.69 0,-3.2 0.77,-6.1 2.31,-8.69 1.54,-2.59 3.66,-4.61 6.36,-6.07 2.7,-1.46 5.73,-2.19 9.09,-2.19 3.36,0 6.39,0.73 9.09,2.19 2.7,1.46 4.82,3.47 6.35,6.05 1.54,2.57 2.31,5.48 2.31,8.71 0,3.23 -0.77,6.14 -2.31,8.71 -1.53,2.58 -3.65,4.6 -6.35,6.05 -2.7,1.46 -5.73,2.19 -9.09,2.19zm0 -5.36c2.19,0 4.17,-0.5 5.93,-1.49 1.76,-0.99 3.14,-2.37 4.15,-4.14 1,-1.78 1.5,-3.76 1.5,-5.96 0,-2.2 -0.5,-4.18 -1.5,-5.96 -1.01,-1.77 -2.39,-3.15 -4.15,-4.14 -1.76,-0.99 -3.74,-1.49 -5.93,-1.49 -2.2,0 -4.18,0.5 -5.94,1.49 -1.76,0.99 -3.14,2.37 -4.14,4.14 -1.01,1.78 -1.51,3.76 -1.51,5.96 0,2.2 0.5,4.18 1.51,5.96 1,1.77 2.38,3.15 4.14,4.14 1.76,0.99 3.74,1.49 5.94,1.49zm46.24 -12.25c2.11,0.57 3.71,1.53 4.81,2.9 1.1,1.36 1.65,3.07 1.65,5.11 0,2.89 -1.07,5.13 -3.21,6.73 -2.13,1.6 -5.22,2.4 -9.27,2.4l-15.64 0 0 -32.96 14.74 0c3.71,0 6.6,0.73 8.67,2.21 2.07,1.48 3.1,3.56 3.1,6.26 0,1.73 -0.41,3.22 -1.24,4.48 -0.84,1.25 -2.04,2.21 -3.61,2.87zm-15.63 -1.74l8.19 0c1.98,0 3.49,-0.39 4.52,-1.18 1.04,-0.78 1.56,-1.95 1.56,-3.48 0,-1.54 -0.52,-2.71 -1.56,-3.51 -1.03,-0.8 -2.54,-1.2 -4.52,-1.2l-8.19 0 0 9.37zm9.42 14.17c4.33,0 6.5,-1.63 6.5,-4.89 0,-3.21 -2.17,-4.81 -6.5,-4.81l-9.42 0 0 9.7 9.42 0zm41.49 -2.92l-16.49 0 -3.24 7.63 -6.32 0 14.84 -32.96 6.03 0 14.88 32.96 -6.4 0 -3.3 -7.63zm-2.03 -4.8l-6.21 -14.41 -6.17 14.41 12.38 0zm46.06 -20.53l0 32.96 -6.12 0 0 -14.13 -17.05 0 0 14.13 -6.12 0 0 -32.96 6.12 0 0 13.61 17.05 0 0 -13.61 6.12 0zm9.28 0l6.03 0 0 23.4 17.71 -23.4 5.7 0 0 32.96 -6.03 0 0 -23.36 -17.71 23.36 -5.7 0 0 -32.96zm63.39 27.83l0 5.13 -24.72 0 0 -32.96 24.06 0 0 5.13 -17.94 0 0 8.57 15.92 0 0 5.04 -15.92 0 0 9.09 18.6 0z"/>
   <polygon class="fil2" points="743.86,282.36 743.86,307.72 650.68,307.72 650.68,191.66 741.71,191.66 741.71,217.03 683.18,217.03 683.18,236.59 734.74,236.59 734.74,261.13 683.18,261.13 683.18,282.36 "/>
   <path class="fil2" d="M847.18 247.04c6.85,2.21 12.08,5.64 15.67,10.28 3.59,4.64 5.39,10.39 5.39,17.24 0,10.28 -4.01,18.38 -12.02,24.29 -8.02,5.92 -19.37,8.87 -34.08,8.87l-59.52 0 0 -116.06 56.37 0c13.93,0 24.74,2.63 32.42,7.88 7.68,5.25 11.52,12.68 11.52,22.3 0,5.63 -1.35,10.61 -4.06,14.92 -2.71,4.31 -6.61,7.74 -11.69,10.28zm-52.23 -8.95l20.89 0c9.29,0 13.93,-3.82 13.93,-11.45 0,-7.62 -4.64,-11.44 -13.93,-11.44l-20.89 0 0 22.89zm25.87 46.09c9.5,0 14.26,-4.04 14.26,-12.11 0,-7.84 -4.76,-11.77 -14.26,-11.77l-25.87 0 0 23.88 25.87 0z"/>
   <polygon class="fil2" points="979.18,282.36 979.18,307.72 886,307.72 886,191.66 977.03,191.66 977.03,217.03 918.5,217.03 918.5,236.59 970.06,236.59 970.06,261.13 918.5,261.13 918.5,282.36 "/>
   <path class="fil2" d="M1051 191.66c10.5,0 19.62,1.74 27.35,5.22 7.74,3.48 13.71,8.46 17.91,14.93 4.2,6.46 6.3,14.06 6.3,22.79 0,8.74 -2.1,16.31 -6.3,22.72 -4.2,6.41 -10.17,11.36 -17.91,14.84 -7.73,3.48 -16.85,5.22 -27.35,5.22l-20.23 0 0 30.34 -32.83 0 0 -116.06 53.06 0zm-1.99 59.86c6.74,0 11.82,-1.47 15.25,-4.4 3.43,-2.93 5.14,-7.1 5.14,-12.52 0,-5.41 -1.71,-9.61 -5.14,-12.6 -3.43,-2.98 -8.51,-4.47 -15.25,-4.47l-18.24 0 0 33.99 18.24 0z"/>
   <polygon class="fil2" points="1226.3,191.64 1226.3,307.72 1193.79,307.72 1193.87,223.51 1149.75,223.51 1149.68,307.72 1117.34,307.72 1117.34,191.64 "/>
   <path class="fil2" d="M1304.23 191.66c10.5,0 19.62,1.74 27.35,5.22 7.74,3.48 13.71,8.46 17.91,14.93 4.2,6.46 6.3,14.06 6.3,22.79 0,8.74 -2.1,16.31 -6.3,22.72 -4.2,6.41 -10.17,11.36 -17.91,14.84 -7.73,3.48 -16.85,5.22 -27.35,5.22l-20.23 0 0 30.34 -32.83 0 0 -116.06 53.06 0zm-1.99 59.86c6.74,0 11.82,-1.47 15.25,-4.4 3.43,-2.93 5.14,-7.1 5.14,-12.52 0,-5.41 -1.71,-9.61 -5.14,-12.6 -3.43,-2.98 -8.51,-4.47 -15.25,-4.47l-18.24 0 0 33.99 18.24 0z"/>
   <path class="fil2" d="M1429.27 310.04c-12.27,0 -23.3,-2.59 -33.08,-7.79 -9.79,-5.19 -17.47,-12.38 -23.05,-21.55 -5.58,-9.18 -8.37,-19.51 -8.37,-31.01 0,-11.49 2.79,-21.83 8.37,-31 5.58,-9.18 13.26,-16.36 23.05,-21.56 9.78,-5.19 20.81,-7.79 33.08,-7.79 12.26,0 23.29,2.6 33.07,7.79 9.79,5.2 17.47,12.38 23.05,21.56 5.58,9.17 8.37,19.51 8.37,31 0,11.5 -2.79,21.83 -8.37,31.01 -5.58,9.17 -13.26,16.36 -23.05,21.55 -9.78,5.2 -20.81,7.79 -33.07,7.79zm0 -27.19c5.85,0 11.16,-1.38 15.91,-4.14 4.76,-2.77 8.51,-6.66 11.28,-11.69 2.76,-5.03 4.14,-10.81 4.14,-17.33 0,-6.52 -1.38,-12.3 -4.14,-17.32 -2.77,-5.03 -6.52,-8.93 -11.28,-11.69 -4.75,-2.77 -10.06,-4.15 -15.91,-4.15 -5.86,0 -11.17,1.38 -15.92,4.15 -4.76,2.76 -8.51,6.66 -11.28,11.69 -2.76,5.02 -4.14,10.8 -4.14,17.32 0,6.52 1.38,12.3 4.14,17.33 2.77,5.03 6.52,8.92 11.28,11.69 4.75,2.76 10.06,4.14 15.92,4.14z"/>
   <polygon class="fil2" points="1615.99,307.72 1615.82,246.21 1585.98,296.28 1571.38,296.28 1541.54,247.54 1541.54,307.72 1511.36,307.72 1511.36,191.66 1538.39,191.66 1579.18,258.64 1618.97,191.66 1646,191.66 1646.33,307.72 "/>
   <polygon class="fil2" points="1902.71,191.66 1902.71,307.72 1869.88,307.72 1869.88,262.46 1825.12,262.46 1825.12,307.72 1792.29,307.72 1792.29,191.66 1825.12,191.66 1825.12,235.27 1869.88,235.27 1869.88,191.66 "/>
   <path class="fil2" d="M2007.69 285.17l-49.08 0 -9.12 22.55 -33.49 0 51.24 -116.06 32.33 0 51.4 116.06 -34.16 0 -9.12 -22.55zm-9.61 -24.2l-14.93 -37.14 -14.92 37.14 29.85 0z"/>
   <path class="fil2" d="M2064.26 191.66l96.99 0 0 25.37 -64.66 0 0 18.73 30.01 0c14.04,0 24.81,2.99 32.33,8.96 7.52,5.97 11.28,14.53 11.28,25.7 0,11.71 -4.2,20.86 -12.61,27.44 -8.4,6.57 -20.17,9.86 -35.31,9.86l-58.03 0 0 -116.06zm55.87 92.52c5.53,0 9.73,-1.11 12.6,-3.32 2.88,-2.21 4.31,-5.36 4.31,-9.45 0,-8.18 -5.63,-12.27 -16.91,-12.27l-23.54 0 0 25.04 23.54 0z"/>
   <path class="fil1" d="M1726.66 191.64c18.74,0 35.41,8.88 46.02,22.67l-25.35 19.54c-4.76,-6.2 -12.25,-10.2 -20.67,-10.2 -14.38,0 -26.04,11.65 -26.04,26.03 0,14.38 11.66,26.04 26.04,26.04 8.43,0 15.92,-4.01 20.67,-10.22l25.11 19.87c-10.63,13.61 -27.18,22.36 -45.78,22.36 -32.06,0 -58.05,-25.99 -58.05,-58.05 0,-32.06 25.99,-58.04 58.05,-58.04z"/>
   <path class="fil1" d="M588.49 191.64c18.75,0 35.41,8.88 46.02,22.67l-25.35 19.55c-4.76,-6.21 -12.24,-10.21 -20.67,-10.21 -14.38,0 -26.03,11.65 -26.03,26.03 0,14.38 11.65,26.04 26.03,26.04 8.43,0 15.92,-4.01 20.68,-10.22l25.1 19.87c-10.62,13.61 -27.18,22.36 -45.78,22.36 -32.06,0 -58.04,-25.99 -58.04,-58.05 0,-32.05 25.98,-58.04 58.04,-58.04z"/>
  </g>
 </g>
</svg>
