<?xml version="1.0" encoding="UTF-8"?>
<!DOCTYPE svg PUBLIC "-//W3C//DTD SVG 1.1//EN" "http://www.w3.org/Graphics/SVG/1.1/DTD/svg11.dtd">
<!-- Creator: CorelDRAW -->
<svg xmlns="http://www.w3.org/2000/svg" xml:space="preserve" width="496px" height="553px" version="1.1" style="shape-rendering:geometricPrecision; text-rendering:geometricPrecision; image-rendering:optimizeQuality; fill-rule:evenodd; clip-rule:evenodd"
viewBox="0 0 113.1 126.16"
 xmlns:xlink="http://www.w3.org/1999/xlink"
 xmlns:xodm="http://www.corel.com/coreldraw/odm/2003">
 <defs>
  <style type="text/css">
   <![CDATA[
    .fil0 {fill:#E01C42}
    .fil1 {fill:#2D2D2D}
   ]]>
  </style>
 </defs>
 <g id="Слой_x0020_1">
  <metadata id="CorelCorpID_0Corel-Layer"/>
  <g id="_2120347760592">
   <path class="fil0" d="M63.08 0c20.37,0 38.49,9.66 50.02,24.64l-27.55 21.24c-5.17,-6.74 -13.31,-11.09 -22.47,-11.09 -15.62,0 -28.29,12.67 -28.29,28.29 0,15.63 12.67,28.3 28.29,28.3 9.16,0 17.3,-4.36 22.47,-11.11l27.28 21.6c-11.54,14.79 -29.53,24.29 -49.75,24.29 -34.84,0 -63.08,-28.24 -63.08,-63.08 0,-34.84 28.24,-63.08 63.08,-63.08z"/>
   <path class="fil1" d="M63.84 6.86c-28.51,0 -52.12,21.01 -56.18,48.39l12.26 0c3.03,-15.89 14.46,-28.79 29.49,-33.91 0.09,-0.03 0.18,-0.07 0.27,-0.1 1.93,-0.59 3.29,-0.98 3.83,-1.08l4.66 9.89c-16.52,2.22 -29.26,16.38 -29.26,33.51 0,18.67 15.13,33.81 33.81,33.81 17.15,0 31.33,-12.78 33.52,-29.34 0.02,-0.18 -0.02,-0.38 0.06,-0.54 1.56,-3 2.71,-5.34 4.82,-8.4 0.7,-1.01 1.88,-2.06 1.67,-3.38 -0.46,-2.92 -5.05,-2.7 -11.73,-0.92 -5.91,1.85 -8.92,4.74 -10.1,8.29 -0.05,0.15 -0.03,0.32 -0.03,0.48 0,10.06 -8.15,18.21 -18.21,18.21 -10.06,0 -18.21,-8.15 -18.21,-18.21 0,-8.51 5.83,-15.65 13.71,-17.65 0.36,3.05 2.97,5.44 6.11,5.44l3.36 0c2.19,0 4.11,-1.15 5.2,-2.88 0.48,-0.7 0.87,-1.68 0.95,-3.27l0.01 -13.57 0 -11.55 0 -7.41 0 -4.93c-3.25,-0.58 -6.6,-0.88 -10.01,-0.88zm24.5 92.82l9.6 8c-11.49,8.77 -25.77,12.77 -40.12,11.34l0 -12.17c10.7,1.36 21.53,-1.15 30.52,-7.17zm-80.8 -28.39c2.73,20.34 16.23,37.27 34.56,44.87l0 -13.42c-11.58,-6.46 -19.99,-17.91 -22.32,-31.45l-12.24 0z"/>
  </g>
 </g>
</svg>
