<?xml version="1.0" encoding="UTF-8"?>
<!DOCTYPE svg PUBLIC "-//W3C//DTD SVG 1.1//EN" "http://www.w3.org/Graphics/SVG/1.1/DTD/svg11.dtd">
<!-- Creator: CorelDRAW -->
<svg xmlns="http://www.w3.org/2000/svg" xml:space="preserve" width="2162px" height="553px" version="1.1" style="shape-rendering:geometricPrecision; text-rendering:geometricPrecision; image-rendering:optimizeQuality; fill-rule:evenodd; clip-rule:evenodd"
viewBox="0 0 2150.15 549.94"
 xmlns:xlink="http://www.w3.org/1999/xlink"
 xmlns:xodm="http://www.corel.com/coreldraw/odm/2003">
 <defs>
  <style type="text/css">
   <![CDATA[
    .fil1 {fill:#FEFEFE}
    .fil0 {fill:#E01C42}
    .fil2 {fill:#FEFEFE;fill-rule:nonzero}
   ]]>
  </style>
 </defs>
 <g id="Слой_x0020_1">
  <metadata id="CorelCorpID_0Corel-Layer"/>
  <g id="_1878032124064">
   <path class="fil0" d="M274.97 0c88.79,0 167.74,42.1 218.02,107.42l-120.1 92.58c-22.54,-29.4 -58.02,-48.36 -97.92,-48.36 -68.11,0 -123.33,55.22 -123.33,123.33 0,68.11 55.22,123.33 123.33,123.33 39.92,0 75.4,-18.98 97.94,-48.39l118.91 94.12c-50.32,64.46 -128.74,105.91 -216.85,105.91 -151.86,0 -274.97,-123.11 -274.97,-274.97 0,-151.86 123.11,-274.97 274.97,-274.97z"/>
   <path class="fil1" d="M278.26 29.9c-124.28,0 -227.16,91.57 -244.89,210.92l53.48 0c13.19,-69.24 63,-125.48 128.5,-147.81 0.41,-0.14 0.8,-0.28 1.21,-0.41 8.41,-2.6 14.31,-4.3 16.68,-4.74l20.33 43.13c-72.03,9.68 -127.57,71.38 -127.57,146.06 0,81.39 65.98,147.38 147.38,147.38 74.78,0 136.56,-55.7 146.1,-127.88 0.1,-0.78 -0.08,-1.66 0.29,-2.37 6.81,-13.07 11.81,-23.28 20.99,-36.62 3.04,-4.41 8.22,-8.96 7.3,-14.75 -2,-12.69 -22.02,-11.73 -51.14,-4.01 -25.75,8.08 -38.86,20.69 -44.01,36.17 -0.21,0.64 -0.15,1.39 -0.15,2.08 0,43.84 -35.54,79.38 -79.38,79.38 -43.84,0 -79.39,-35.54 -79.39,-79.38 0,-37.08 25.42,-68.21 59.77,-76.94 1.57,13.3 12.96,23.71 26.66,23.71l14.63 0c9.53,0 17.9,-5 22.67,-12.55 2.1,-3.04 3.79,-7.3 4.13,-14.26l0.05 -59.16 0 -50.32 0 -32.28 0 -21.52c-14.17,-2.52 -28.75,-3.83 -43.64,-3.83zm106.79 404.61l41.87 34.85c-50.09,38.25 -112.32,55.66 -174.91,49.44l0 -53.05c46.65,5.93 93.88,-5.03 133.04,-31.24zm-352.17 -123.75c11.9,88.64 70.72,162.42 150.64,195.55l0 -58.49c-50.48,-28.14 -87.16,-78.06 -97.31,-137.06l-53.33 0z"/>
   <g>
    <polygon class="fil2" points="730.37,307.48 730.37,332.73 637.62,332.73 637.62,217.2 728.22,217.2 728.22,242.46 669.96,242.46 669.96,261.93 721.29,261.93 721.29,286.36 669.96,286.36 669.96,307.48 "/>
    <path class="fil2" d="M833.21 272.33c6.82,2.2 12.02,5.61 15.6,10.23 3.57,4.62 5.36,10.34 5.36,17.16 0,10.24 -3.99,18.3 -11.96,24.18 -7.98,5.89 -19.29,8.83 -33.92,8.83l-59.25 0 0 -115.53 56.11 0c13.87,0 24.62,2.62 32.27,7.84 7.65,5.23 11.47,12.63 11.47,22.2 0,5.61 -1.35,10.56 -4.04,14.86 -2.7,4.29 -6.58,7.7 -11.64,10.23zm-51.99 -8.91l20.8 0c9.24,0 13.86,-3.8 13.86,-11.39 0,-7.59 -4.62,-11.39 -13.86,-11.39l-20.8 0 0 22.78zm25.75 45.88c9.46,0 14.19,-4.02 14.19,-12.05 0,-7.81 -4.73,-11.72 -14.19,-11.72l-25.75 0 0 23.77 25.75 0z"/>
    <polygon class="fil2" points="964.61,307.48 964.61,332.73 871.85,332.73 871.85,217.2 962.46,217.2 962.46,242.46 904.2,242.46 904.2,261.93 955.53,261.93 955.53,286.36 904.2,286.36 904.2,307.48 "/>
    <path class="fil2" d="M1036.09 217.2c10.45,0 19.53,1.74 27.23,5.2 7.7,3.47 13.64,8.42 17.83,14.86 4.18,6.43 6.27,14 6.27,22.69 0,8.69 -2.09,16.23 -6.27,22.61 -4.19,6.38 -10.13,11.3 -17.83,14.77 -7.7,3.47 -16.78,5.2 -27.23,5.2l-20.14 0 0 30.2 -32.67 0 0 -115.53 52.81 0zm-1.98 59.58c6.71,0 11.77,-1.45 15.18,-4.37 3.41,-2.92 5.12,-7.07 5.12,-12.46 0,-5.39 -1.71,-9.57 -5.12,-12.54 -3.41,-2.97 -8.47,-4.46 -15.18,-4.46l-18.16 0 0 33.83 18.16 0z"/>
    <polygon class="fil2" points="1210.58,217.18 1210.58,332.73 1178.23,332.73 1178.3,248.9 1134.39,248.9 1134.32,332.73 1102.13,332.73 1102.13,217.18 "/>
    <path class="fil2" d="M1288.15 217.2c10.46,0 19.53,1.74 27.23,5.2 7.71,3.47 13.65,8.42 17.83,14.86 4.18,6.43 6.27,14 6.27,22.69 0,8.69 -2.09,16.23 -6.27,22.61 -4.18,6.38 -10.12,11.3 -17.83,14.77 -7.7,3.47 -16.77,5.2 -27.23,5.2l-20.13 0 0 30.2 -32.68 0 0 -115.53 52.81 0zm-1.98 59.58c6.71,0 11.78,-1.45 15.19,-4.37 3.41,-2.92 5.11,-7.07 5.11,-12.46 0,-5.39 -1.7,-9.57 -5.11,-12.54 -3.41,-2.97 -8.48,-4.46 -15.19,-4.46l-18.15 0 0 33.83 18.15 0z"/>
    <path class="fil2" d="M1412.62 335.04c-12.22,0 -23.19,-2.58 -32.93,-7.75 -9.74,-5.18 -17.38,-12.33 -22.94,-21.46 -5.56,-9.13 -8.33,-19.42 -8.33,-30.86 0,-11.44 2.77,-21.73 8.33,-30.86 5.56,-9.14 13.2,-16.29 22.94,-21.46 9.74,-5.17 20.71,-7.76 32.93,-7.76 12.21,0 23.18,2.59 32.92,7.76 9.74,5.17 17.39,12.32 22.94,21.46 5.56,9.13 8.34,19.42 8.34,30.86 0,11.44 -2.78,21.73 -8.34,30.86 -5.55,9.13 -13.2,16.28 -22.94,21.46 -9.74,5.17 -20.71,7.75 -32.92,7.75zm0 -27.06c5.83,0 11.11,-1.38 15.84,-4.13 4.73,-2.75 8.47,-6.63 11.22,-11.64 2.75,-5 4.13,-10.75 4.13,-17.24 0,-6.49 -1.38,-12.24 -4.13,-17.25 -2.75,-5.01 -6.49,-8.88 -11.22,-11.63 -4.73,-2.76 -10.01,-4.13 -15.84,-4.13 -5.84,0 -11.12,1.37 -15.85,4.13 -4.73,2.75 -8.47,6.62 -11.22,11.63 -2.75,5.01 -4.13,10.76 -4.13,17.25 0,6.49 1.38,12.24 4.13,17.24 2.75,5.01 6.49,8.89 11.22,11.64 4.73,2.75 10.01,4.13 15.85,4.13z"/>
    <polygon class="fil2" points="1598.48,332.73 1598.31,271.5 1568.61,321.34 1554.08,321.34 1524.37,272.82 1524.37,332.73 1494.34,332.73 1494.34,217.2 1521.24,217.2 1561.84,283.88 1601.45,217.2 1628.35,217.2 1628.68,332.73 "/>
    <polygon class="fil2" points="1883.88,217.2 1883.88,332.73 1851.21,332.73 1851.21,287.68 1806.64,287.68 1806.64,332.73 1773.97,332.73 1773.97,217.2 1806.64,217.2 1806.64,260.61 1851.21,260.61 1851.21,217.2 "/>
    <path class="fil2" d="M1988.38 310.29l-48.85 0 -9.08 22.44 -33.34 0 51 -115.53 32.18 0 51.17 115.53 -34 0 -9.08 -22.44zm-9.57 -24.1l-14.86 -36.97 -14.85 36.97 29.71 0z"/>
    <path class="fil2" d="M2044.68 217.2l96.55 0 0 25.26 -64.36 0 0 18.64 29.87 0c13.97,0 24.7,2.98 32.18,8.92 7.48,5.94 11.23,14.47 11.23,25.58 0,11.66 -4.19,20.77 -12.55,27.31 -8.36,6.55 -20.08,9.82 -35.15,9.82l-57.77 0 0 -115.53zm55.62 92.1c5.5,0 9.68,-1.1 12.55,-3.3 2.86,-2.2 4.29,-5.34 4.29,-9.41 0,-8.14 -5.61,-12.21 -16.84,-12.21l-23.43 0 0 24.92 23.43 0z"/>
    <path class="fil1" d="M1708.64 217.18c18.66,0 35.25,8.85 45.81,22.57l-25.23 19.45c-4.74,-6.17 -12.19,-10.16 -20.58,-10.16 -14.31,0 -25.91,11.61 -25.91,25.92 0,14.31 11.6,25.91 25.91,25.91 8.39,0 15.85,-3.98 20.58,-10.17l24.99 19.78c-10.58,13.55 -27.06,22.25 -45.57,22.25 -31.91,0 -57.78,-25.86 -57.78,-57.77 0,-31.91 25.87,-57.78 57.78,-57.78z"/>
    <path class="fil1" d="M575.71 217.18c18.66,0 35.25,8.85 45.81,22.57l-25.23 19.45c-4.74,-6.17 -12.19,-10.16 -20.58,-10.16 -14.31,0 -25.91,11.61 -25.91,25.92 0,14.31 11.6,25.91 25.91,25.91 8.39,0 15.85,-3.98 20.58,-10.17l24.99 19.78c-10.57,13.55 -27.05,22.25 -45.57,22.25 -31.91,0 -57.77,-25.86 -57.77,-57.77 0,-31.91 25.86,-57.78 57.77,-57.78z"/>
   </g>
  </g>
 </g>
</svg>
